<?xml version="1.0" encoding="UTF-8" standalone="no"?>
<!-- Created with Inkscape (http://www.inkscape.org/) -->

<svg
   width="97.417358mm"
   height="98.129387mm"
   viewBox="0 0 97.417358 98.129387"
   version="1.1"
   id="svg704"
   xmlns="http://www.w3.org/2000/svg"
   xmlns:svg="http://www.w3.org/2000/svg">
  <defs
     id="defs701">
    <clipPath
       id="id5">
      <path
         d="M 95.59375,1326.2305 H 348 v 225.6093 H 95.59375 Z m 0,0"
         clip-rule="nonzero"
         id="path228" />
    </clipPath>
    <clipPath
       id="id6">
      <path
         d="M 95.59375,1326.2305 H 348 v 225.6093 H 95.59375 Z m 0,0"
         clip-rule="nonzero"
         id="path231" />
    </clipPath>
  </defs>
  <g
     id="layer1"
     transform="translate(-55.258252,-90.460973)">
    <g
       id="g2020">
      <g
         clip-path="url(#id5)"
         id="g338"
         transform="matrix(0.38636446,0,0,0.43548323,18.301628,-487.11355)">
        <path
           fill="#000000"
           d="m 220.19531,1368.3828 c -2.33984,0.6328 -4.55469,1.1055 -6.67578,1.8438 -2.04297,0.707 -4,1.664 -5.96875,2.5664 -0.60547,0.2812 -1.17969,0.4765 -1.85156,0.4648 -7.23438,-0.1601 -14.37891,0.8086 -21.53125,1.6758 -8.31641,1.0117 -16.63672,1.9531 -24.95703,2.9219 -0.42188,0.047 -0.85157,0.043 -1.40235,0.07 0.17188,-0.1875 0.23438,-0.3086 0.33203,-0.3555 4.70313,-2.2305 9.38672,-4.4922 14.11719,-6.664 4.10156,-1.8868 8.28906,-3.5508 12.71875,-4.543 3.23438,-0.7227 6.51953,-0.9922 9.81641,-1.0977 6.34765,-0.1992 12.67969,0.02 18.92969,1.2539 1.91015,0.375 3.76953,0.9883 5.65234,1.5039 0.23828,0.066 0.46094,0.1993 0.82031,0.3594 z m 9.17969,3.2735 c 0.32422,0.2578 0.62109,0.5507 0.96875,0.7695 3.35156,2.0859 6.58984,4.3828 10.08594,6.1875 9.83593,5.0859 19.94531,9.5625 30.62109,12.6406 0.57031,0.1641 1.14063,0.3477 1.70703,0.5234 -0.0625,-0.3476 -0.19922,-0.5468 -0.3789,-0.6992 -3.05079,-2.6406 -6.0586,-5.3359 -9.17579,-7.8984 -4.2539,-3.4922 -9,-6.1758 -14.125,-8.1992 -5.16406,-2.0391 -10.47656,-3.3985 -16.05078,-3.5664 -1.19531,-0.039 -2.39062,-0.01 -3.58203,-0.01 -0.0234,0.082 -0.0469,0.1679 -0.0703,0.25 z m -8,-2.25 c -1.07813,0.3203 -2.20703,0.4609 -3.30078,0.7343 -11.00391,2.7852 -19.6875,8.8008 -25.73828,18.4649 -2.71875,4.3476 -4.85938,8.9922 -6.97657,13.6445 -0.082,0.1797 -0.11718,0.3828 -0.2539,0.8516 11.40625,-13.1524 24.07031,-24.3399 39.24219,-32.6641 -0.87891,-1.0547 -1.78125,-1.3906 -2.97266,-1.0312 z m 9.98437,-1.0352 c 3.10938,-2.3789 6.61329,-3.957 10.34766,-5.0547 5.91016,-1.7383 11.83594,-3.4101 17.73828,-5.1758 5.73828,-1.7148 11.38281,-3.7031 16.71094,-6.4843 0.34375,-0.1797 0.67187,-0.3868 1.21094,-0.6915 -0.38282,-0.043 -0.46875,-0.066 -0.55469,-0.055 -4.08594,0.5273 -8.17578,1.0546 -12.26172,1.5976 -5.29297,0.7031 -10.59375,1.3672 -15.76172,2.7695 -4.25781,1.1563 -8.30078,2.7891 -11.89453,5.4141 -2.44141,1.7852 -4.24219,4.0742 -5.55859,6.7695 -0.14453,0.293 -0.20703,0.625 -0.32813,1.0039 0.19922,-0.051 0.29297,-0.047 0.35156,-0.094 z m -7.94531,-5.4531 c 0.043,-0.6446 -0.15625,-1.1797 -0.52734,-1.6914 -1.38281,-1.9141 -2.98438,-3.6016 -4.96485,-4.9102 -2.28906,-1.5117 -4.71093,-2.75 -7.3164,-3.6328 -4.51953,-1.5313 -9.09375,-2.8477 -13.76172,-3.8477 -1.89063,-0.4062 -3.78125,-0.8203 -5.67188,-1.2265 -0.043,0.082 -0.0859,0.164 -0.125,0.2461 1.24219,0.8398 2.45704,1.7187 3.72657,2.5156 3.87109,2.4297 8.09765,4.1367 12.23828,6.0234 5.83594,2.6602 11.30078,5.8946 15.75781,10.6055 0.0742,0.082 0.19922,0.1172 0.42188,0.2383 0.0742,-1.5039 0.1289,-2.9141 0.22265,-4.3203 z m 21.27344,-33.4532 c -10.61719,11.5118 -14.59375,25.3321 -14.96094,40.4649 -1.5664,0.7305 -3.74609,0.418 -4.94922,-0.7539 -0.21875,-0.2149 -0.3789,-0.6016 -0.37109,-0.9063 0.23828,-8.8945 0.79297,-17.7578 3.41797,-26.3398 1.46094,-4.7656 3.8164,-9.0899 6.65625,-13.1758 0.74219,-1.0664 1.54297,-1.4687 2.80859,-1.3047 2.50781,0.3281 4.96485,0.8008 7.39844,2.0156 z m -17.42578,42.1836 c -0.21094,2.7618 -1.20703,5.1797 -2.69141,7.4219 -2.13281,3.2149 -4.85156,5.8828 -7.85547,8.2695 -3.27343,2.6055 -6.84375,4.7383 -10.53906,6.6797 -4.68359,2.4649 -9.38281,4.8985 -14.01172,7.4571 -2.3125,1.2773 -4.48828,2.7968 -6.72656,4.2031 -0.19922,0.1289 -0.40234,0.2539 -0.72266,0.25 0.25782,-0.3789 0.48047,-0.7891 0.77735,-1.1367 1.89062,-2.2071 3.74218,-4.4453 5.70703,-6.5821 6.78515,-7.3671 14.27344,-13.9531 22.49219,-19.6757 3.44531,-2.4024 7.10937,-4.4961 10.64453,-6.7774 0.96875,-0.6289 1.85937,-0.8086 2.92578,-0.1094 z m 49.64453,-18.9336 c -0.33984,0.1563 -0.67969,0.3165 -1.02344,0.4688 -1.77734,0.7969 -3.54687,1.6289 -5.34375,2.3789 -5.375,2.2461 -10.96094,3.8555 -16.54297,5.4844 -4.91015,1.4336 -9.82031,2.8789 -14.70312,4.4062 -2.3711,0.7422 -4.55078,1.9336 -6.58594,3.3594 -0.36328,0.2539 -0.67969,0.5742 -1.14844,0.9766 0.57813,0.1406 0.91016,0.2578 1.25,0.2968 3.76563,0.4258 7.53516,0.5391 11.30078,-0.043 9.15625,-1.4219 17.38282,-5.0313 24.73829,-10.6172 2.52343,-1.918 4.96484,-3.9414 7.4375,-5.918 0.25,-0.1992 0.47265,-0.4336 0.70703,-0.6484 -0.0274,-0.047 -0.0586,-0.098 -0.0859,-0.1446 z m -72.73828,21.629 c -0.82422,0.039 -1.64453,0.1015 -2.46875,0.1289 -6.08203,0.2031 -12.09766,1.0234 -18.1211,1.7968 -5.20703,0.668 -10.41406,1.3164 -15.62109,1.9493 -2.73437,0.3281 -5.47656,0.5976 -8.47656,0.9218 0.5,0.1758 0.76172,0.3008 1.03515,0.3594 2.29297,0.4688 4.58204,0.9688 6.88282,1.3828 9.77343,1.7617 19.51172,1.707 29.1914,-0.6406 0.45313,-0.1094 0.94141,-0.2617 1.29688,-0.543 2.16797,-1.7187 4.30469,-3.4804 6.5,-5.2695 -0.0742,-0.031 -0.14844,-0.09 -0.21875,-0.086 z M 271.625,1392.75 c -0.95313,-0.3008 -1.90234,-0.6055 -2.85547,-0.8906 -7.20703,-2.1602 -14.10156,-5.1094 -20.9375,-8.2149 -6.53516,-2.9648 -12.85547,-6.2968 -18.61328,-10.6211 -0.20313,-0.1562 -0.42969,-0.2812 -0.65234,-0.4218 -0.47657,0.6953 -0.29688,1.3437 -0.0117,2 0.86328,1.9882 2.21875,3.6172 3.76172,5.0937 2.39453,2.293 5.0664,4.2227 7.97656,5.8125 6.4414,3.5195 13.24219,6.0547 20.51953,7.211 3.66016,0.5781 7.33594,0.6718 11.23047,0.3085 -0.28516,-0.1875 -0.34375,-0.2539 -0.41797,-0.2773 z m -80.60156,-43.2227 c 0.1914,0.2305 0.37109,0.4766 0.57812,0.6915 5.5,5.7578 11.96485,10.2421 18.81641,14.207 0.47265,0.2734 1.05078,0.4062 1.59375,0.5 2.73828,0.4765 5.43359,1.1172 8.03906,2.0859 0.3125,0.1133 0.63672,0.1914 0.95703,0.2891 -0.10937,-0.3906 -0.29297,-0.6641 -0.53515,-0.8711 -0.91407,-0.793 -1.82422,-1.6016 -2.78125,-2.3399 -4.03907,-3.125 -8.52344,-5.4687 -13.19922,-7.4765 -3.46485,-1.4883 -6.89844,-3.0391 -10.09375,-5.0703 -1.08985,-0.6914 -2.15625,-1.4258 -3.23828,-2.1407 -0.043,0.043 -0.0898,0.086 -0.13672,0.125 z m 16.46484,14.8204 c -1.875,-0.098 -3.5625,-0.211 -5.25,-0.2696 -5.4375,-0.1797 -10.85937,-0.1289 -16.23828,0.8321 -4.34766,0.7773 -8.44922,2.3086 -12.46484,4.0859 -3.48829,1.5469 -6.91797,3.2266 -10.37891,4.8398 -2.55859,1.1914 -5.125,2.3594 -7.67578,3.5625 -0.5586,0.2618 -1.39063,0.4024 -1.27735,1.2461 0.10157,0.7266 0.86329,0.7618 1.4375,0.9141 6.98047,1.832 14.02735,3.2344 21.26172,3.6602 5.89453,0.3437 11.71094,-0.098 17.48828,-1.2422 0.29688,-0.059 0.59766,-0.1055 0.89844,-0.1407 0.0664,-0.01 0.14063,0.066 0.27344,0.1329 -0.082,0.1445 -0.14063,0.3007 -0.24219,0.4218 -3.51562,4.086 -6.05859,8.7735 -8.38672,13.5821 -2.26953,4.6836 -4.48828,9.3906 -6.71875,14.0937 -0.23047,0.4844 -0.71093,1.082 -0.082,1.5117 0.64063,0.4336 0.98828,-0.2539 1.35156,-0.6484 2.81641,-3.0703 6.09766,-5.5508 9.7461,-7.5313 5.10937,-2.7773 10.24219,-5.5156 15.39062,-8.2187 4.90235,-2.5742 9.57422,-5.4727 13.64063,-9.2617 2.97656,-2.7735 5.58594,-5.8282 7.1875,-9.6289 0.043,-0.1094 0.16015,-0.1875 0.28906,-0.3321 0.43359,0.6328 0.82813,1.2383 1.25781,1.8243 1.9961,2.7382 4.56641,4.8789 7.36328,6.7304 6.78125,4.4766 14.20704,7.4102 22.16016,9.043 5.16016,1.0586 10.34766,1.0742 15.55859,0.5664 0.67969,-0.066 1.51172,-0.031 1.80079,-0.7891 0.32812,-0.8476 -0.52344,-1.207 -1.01172,-1.6289 -4.0625,-3.5312 -8.05078,-7.1562 -12.25782,-10.5078 -5.46093,-4.3476 -11.72656,-7.2187 -18.41015,-9.1992 -0.33203,-0.098 -0.66406,-0.1914 -0.9961,-0.3008 -0.0703,-0.023 -0.1289,-0.1055 -0.26562,-0.2226 0.94922,-0.1641 1.83594,-0.3164 2.72656,-0.4727 8.72266,-1.5273 16.5625,-5.0781 23.61719,-10.3711 0.91016,-0.6797 1.70312,-0.8984 2.84375,-0.6875 14.30469,2.6406 27.65234,7.6953 39.91797,15.5508 13.64062,8.7383 23.49219,20.5859 29.35156,35.6797 2.70313,6.9531 4.26563,14.2031 4.87109,21.6328 1.0586,12.9258 -1.11718,25.4219 -5.3125,37.6055 -3.30078,9.5976 -7.53515,18.7578 -13.32031,27.1445 -4.95312,7.1758 -10.85937,13.5312 -17.21094,19.4805 -9.02734,8.4492 -18.95312,15.6406 -30.11718,21.0195 -10.33985,4.9883 -21.17969,8.4922 -32.52735,10.3789 -8.54297,1.4219 -17.13281,2.2734 -25.80859,2.0898 -6.61328,-0.1367 -13.1875,-0.7773 -19.69922,-1.8906 -16.85937,-2.8867 -32.91016,-8.168 -48.0625,-16.168 -14.32031,-7.5585 -26.47656,-17.6796 -36.44922,-30.3789 -7.5625,-9.625 -13.59375,-20.1367 -17.28515,-31.8671 -3.53516,-11.2188 -4.402348,-22.6836 -2.945316,-34.3438 1.507812,-12.0391 5.460936,-23.1836 12.253906,-33.2695 6.68359,-9.9297 15.23438,-17.9844 25.15234,-24.625 9.50782,-6.3672 19.92969,-10.7227 30.91407,-13.8008 8.96875,-2.5117 18.08984,-4.2344 27.33984,-5.2734 1.59766,-0.1797 3.19141,-0.3829 4.79297,-0.4961 0.48047,-0.035 1.05859,0.078 1.44922,0.3359 2.57422,1.6953 5.10937,3.4453 7.65234,5.1836 0.10156,0.07 0.17188,0.1758 0.40625,0.418 z m 130.33203,75.6562 c -0.29687,-3.1484 -0.42969,-6.3203 -0.91406,-9.4375 -2.73828,-17.5312 -10.83984,-32.1289 -24.31641,-43.7031 -5.17578,-4.4453 -10.98437,-7.8906 -17.35937,-10.3594 -0.40235,-0.1523 -0.81641,-0.3164 -1.23828,-0.3672 -0.19141,-0.027 -0.53125,0.1602 -0.59766,0.3321 -0.0664,0.1718 0.0586,0.5234 0.21484,0.6523 0.26172,0.207 0.61329,0.3125 0.9336,0.4375 4.8164,1.832 9.32031,4.2461 13.46484,7.2969 13.64844,10.0508 22.3711,23.4062 26.50781,39.7656 1.97657,7.8125 2.4336,15.7461 1.32032,23.7422 -0.17969,1.289 -0.44141,2.5625 -0.6836,3.8398 -0.082,0.4532 -0.16797,0.9571 0.3711,1.0899 0.64062,0.1562 0.76953,-0.3828 0.85156,-0.8789 0.0195,-0.125 0.043,-0.2539 0.0703,-0.3828 0.82422,-3.961 1.19141,-7.9688 1.375,-12.0274 z m -3.02344,20.8203 c -0.0898,-0.1484 -0.17578,-0.4922 -0.3789,-0.5859 -0.40235,-0.1875 -0.625,0.1289 -0.74219,0.4883 -0.12109,0.3672 -0.23047,0.7382 -0.34766,1.1093 -0.43359,1.3516 -0.85546,2.7071 -1.30078,4.0586 -0.24609,0.7344 -0.5664,1.4493 -0.76172,2.1953 -0.0664,0.2657 0.043,0.7422 0.23438,0.8711 0.4375,0.2852 0.73047,-0.094 0.86719,-0.4726 0.49218,-1.3789 0.98047,-2.7617 1.42578,-4.1563 0.35547,-1.1054 0.64453,-2.2343 1.0039,-3.5078 z m -100.94531,-99.0664 c 0.90625,-0.9219 1.9336,-1.7422 2.98047,-2.5078 1.04688,-0.7695 2.1875,-1.418 3.51953,-2.2656 -2.86328,0 -5.40234,0 -8.03515,0 -0.52344,2.6328 -0.96485,5.2031 -1.11329,7.9883 0.95704,-1.1797 1.72657,-2.2735 2.64844,-3.2149 z m -10.3125,-1.8242 c 0.082,-1.1055 0.13672,-1.8633 0.19922,-2.7109 -0.86328,0 -1.60937,0 -2.59375,0 0.81641,0.9296 1.5,1.6953 2.39453,2.7109 z m -26.14453,-2.6875 c -0.47656,-0.4219 -0.78125,-0.6992 -1.09766,-0.9648 -2.85937,-2.4102 -5.61718,-4.9219 -7.86718,-7.9297 -0.28516,-0.3828 -0.59766,-0.7696 -0.76172,-1.2071 -0.1211,-0.3242 -0.16406,-0.8359 0.0117,-1.0703 0.17578,-0.2344 0.69922,-0.3554 1.02343,-0.2969 1.40625,0.2657 2.79297,0.6329 4.19532,0.9336 5.73047,1.2266 11.42968,2.5664 16.99609,4.418 3.23828,1.0781 6.29688,2.4844 9.09375,4.4297 0.48438,0.3398 0.96875,0.5273 1.56641,0.5078 1.07422,-0.031 2.14843,-0.01 3.28125,-0.01 0.23437,-1.7031 0.4414,-3.2852 0.67578,-4.8633 0.75781,-5.168 1.95312,-10.2187 4.19922,-14.9726 1.46875,-3.1055 3.19922,-6.0547 5.2539,-8.8164 0.57032,-0.7696 1.23047,-1.1563 2.1875,-1.1172 2.98047,0.1093 5.86719,0.6211 8.60547,1.832 0.19922,0.09 0.40235,0.1719 0.58594,0.2812 1,0.5977 1.10156,1.0938 0.30469,1.9415 -1.875,1.996 -3.67188,4.0507 -5.17578,6.3515 -3.69141,5.6524 -6.23438,11.7852 -7.75391,18.3516 -0.0469,0.207 -0.0469,0.4258 -0.0781,0.7617 0.51954,0 0.98829,0 1.45704,0 2.6914,0.016 5.38671,0.043 8.07812,0.031 0.55078,0 1.13672,-0.074 1.64844,-0.2656 4.625,-1.7187 9.41797,-2.7226 14.28906,-3.3945 6.40625,-0.8828 12.82031,-1.7266 19.23047,-2.6055 1.20312,-0.164 2.39453,-0.4179 3.58984,-0.6289 0.25782,-0.047 0.51172,-0.1289 0.76953,-0.1328 0.64063,0 0.94532,0.5078 0.60547,1.0508 -0.17968,0.2851 -0.45312,0.5234 -0.71875,0.7422 -2.85937,2.3984 -5.72656,4.789 -8.59375,7.1797 -0.3164,0.2656 -0.625,0.5351 -1.125,0.957 1.28516,0.2695 2.32813,0.4922 3.37891,0.707 13.95312,2.8281 26.90234,8.0977 38.76562,15.9766 14.08594,9.3515 23.97266,22 29.45313,37.9726 3.16797,9.2227 4.64844,18.7579 4.26172,28.5391 -0.41797,10.5313 -2.60938,20.7109 -6.1875,30.6094 -2.5625,7.0742 -5.65235,13.9023 -9.47266,20.3906 -4.47656,7.6016 -10.09765,14.3086 -16.27734,20.5703 -9.48438,9.6172 -20.02344,17.8477 -32.03125,24.0938 -10.78125,5.6054 -22.19531,9.4336 -34.15235,11.6172 -6.16015,1.125 -12.36718,1.8906 -18.61718,2.2343 -7.21485,0.3946 -14.41016,0.07 -21.59375,-0.7226 -15.26953,-1.6914 -29.91797,-5.7657 -44.03907,-11.6914 -10.80859,-4.5352 -21.00781,-10.2071 -30.15234,-17.6211 -12.96875,-10.5157 -23.27344,-23.1719 -30.74219,-38.1133 -5.742184,-11.4883 -8.789059,-23.6211 -8.812496,-36.4688 -0.02344,-14.4687 3.195312,-28.1171 10.492186,-40.7148 4.8125,-8.3164 11.09766,-15.3906 18.32422,-21.6719 10.99219,-9.5586 23.64453,-16.0586 37.51172,-20.3203 9.23828,-2.8359 18.66797,-4.7734 28.25,-6.0039 2.10937,-0.2695 4.22265,-0.5 6.33594,-0.75 0.19921,-0.023 0.39453,-0.063 0.82812,-0.1289 z m 10.09375,7.1016 c -0.23437,-0.2422 -0.30469,-0.3477 -0.40625,-0.418 -2.54297,-1.7383 -5.07812,-3.4883 -7.65234,-5.1836 -0.39063,-0.2578 -0.96875,-0.3711 -1.44922,-0.3359 -1.60156,0.1132 -3.19531,0.3164 -4.79297,0.4961 -9.25,1.039 -18.37109,2.7617 -27.33984,5.2734 -10.98438,3.0781 -21.40625,7.4336 -30.91407,13.8008 -9.91796,6.6406 -18.46875,14.6953 -25.15234,24.625 -6.79297,10.0859 -10.746094,21.2304 -12.253906,33.2695 -1.457032,11.6602 -0.589844,23.125 2.945316,34.3438 3.6914,11.7304 9.72265,22.2421 17.28515,31.8671 9.97266,12.6993 22.12891,22.8204 36.44922,30.3789 15.15234,8 31.20313,13.2813 48.0625,16.168 6.51172,1.1133 13.08594,1.7539 19.69922,1.8906 8.67578,0.1836 17.26562,-0.6679 25.80859,-2.0898 11.34766,-1.8867 22.1875,-5.3906 32.52735,-10.3789 11.16406,-5.3789 21.08984,-12.5703 30.11718,-21.0195 6.35157,-5.9493 12.25782,-12.3047 17.21094,-19.4805 5.78516,-8.3867 10.01953,-17.5469 13.32031,-27.1445 4.19532,-12.1836 6.3711,-24.6797 5.3125,-37.6055 -0.60546,-7.4297 -2.16796,-14.6797 -4.87109,-21.6328 -5.85937,-15.0938 -15.71094,-26.9414 -29.35156,-35.6797 -12.26563,-7.8555 -25.61328,-12.9102 -39.91797,-15.5508 -1.14063,-0.2109 -1.93359,0.01 -2.84375,0.6875 -7.05469,5.293 -14.89453,8.8438 -23.61719,10.3711 -0.89062,0.1563 -1.77734,0.3086 -2.72656,0.4727 0.13672,0.1171 0.19531,0.1992 0.26562,0.2226 0.33204,0.1094 0.66407,0.2031 0.9961,0.3008 6.68359,1.9805 12.94922,4.8516 18.41015,9.1992 4.20704,3.3516 8.19532,6.9766 12.25782,10.5078 0.48828,0.4219 1.33984,0.7813 1.01172,1.6289 -0.28907,0.7578 -1.1211,0.7227 -1.80079,0.7891 -5.21093,0.5078 -10.39843,0.4922 -15.55859,-0.5664 -7.95312,-1.6328 -15.37891,-4.5664 -22.16016,-9.043 -2.79687,-1.8515 -5.36718,-3.9922 -7.36328,-6.7304 -0.42968,-0.586 -0.82422,-1.1915 -1.25781,-1.8243 -0.12891,0.1446 -0.24609,0.2227 -0.28906,0.3321 -1.60156,3.8007 -4.21094,6.8554 -7.1875,9.6289 -4.06641,3.789 -8.73828,6.6875 -13.64063,9.2617 -5.14843,2.7031 -10.28125,5.4414 -15.39062,8.2187 -3.64844,1.9805 -6.92969,4.461 -9.7461,7.5313 -0.36328,0.3945 -0.71093,1.082 -1.35156,0.6484 -0.6289,-0.4297 -0.14844,-1.0273 0.082,-1.5117 2.23047,-4.7031 4.44922,-9.4101 6.71875,-14.0937 2.32813,-4.8086 4.8711,-9.4961 8.38672,-13.5821 0.10156,-0.1211 0.16016,-0.2773 0.24219,-0.4218 -0.13281,-0.067 -0.20703,-0.1407 -0.27344,-0.1329 -0.30078,0.035 -0.60156,0.082 -0.89844,0.1407 -5.77734,1.1445 -11.59375,1.5859 -17.48828,1.2422 -7.23437,-0.4219 -14.28125,-1.8282 -21.26172,-3.6602 -0.57421,-0.1523 -1.33593,-0.1875 -1.4375,-0.9141 -0.11328,-0.8437 0.71875,-0.9843 1.27735,-1.2461 2.55078,-1.2031 5.11719,-2.3711 7.67578,-3.5625 3.46094,-1.6132 6.89062,-3.2929 10.37891,-4.8398 4.01562,-1.7773 8.11718,-3.3086 12.46484,-4.0859 5.37891,-0.961 10.80469,-1.0118 16.23828,-0.8321 1.6875,0.059 3.375,0.1719 5.25,0.2696 z m 12.70703,4.0351 c -0.35937,-0.1601 -0.58203,-0.293 -0.82031,-0.3594 -1.88281,-0.5156 -3.74219,-1.1289 -5.65234,-1.5039 -6.25,-1.2343 -12.58204,-1.4531 -18.92969,-1.2539 -3.29688,0.1055 -6.58203,0.375 -9.81641,1.0977 -4.42969,0.9922 -8.61719,2.6562 -12.71875,4.543 -4.73047,2.1718 -9.41406,4.4335 -14.11719,6.664 -0.0977,0.047 -0.16015,0.168 -0.33203,0.3555 0.55078,-0.027 0.98047,-0.024 1.40235,-0.07 8.32031,-0.9688 16.64062,-1.9102 24.95703,-2.9219 7.15234,-0.8672 14.29687,-1.8359 21.53125,-1.6758 0.67187,0.012 1.24609,-0.1836 1.85156,-0.4648 1.96875,-0.9024 3.92578,-1.8594 5.96875,-2.5664 2.12109,-0.7383 4.33594,-1.211 6.67578,-1.8438 z m 7.06641,3.2656 c -1.06641,-0.6992 -1.95703,-0.5195 -2.92578,0.1094 -3.53516,2.2813 -7.19922,4.375 -10.64453,6.7774 -8.21875,5.7226 -15.70704,12.3086 -22.49219,19.6757 -1.96485,2.1368 -3.81641,4.375 -5.70703,6.5821 -0.29688,0.3476 -0.51953,0.7578 -0.77735,1.1367 0.32032,0 0.52344,-0.1211 0.72266,-0.25 2.23828,-1.4063 4.41406,-2.9258 6.72656,-4.2031 4.62891,-2.5586 9.32813,-4.9922 14.01172,-7.4571 3.69531,-1.9414 7.26563,-4.0742 10.53906,-6.6797 3.00391,-2.3867 5.72266,-5.0546 7.85547,-8.2695 1.48438,-2.2422 2.48047,-4.6601 2.69141,-7.4219 z m 17.42578,-42.1836 c -2.43359,-1.2148 -4.89063,-1.6875 -7.39844,-2.0156 -1.26562,-0.164 -2.0664,0.2383 -2.80859,1.3047 -2.83985,4.0859 -5.19531,8.4102 -6.65625,13.1758 -2.625,8.582 -3.17969,17.4453 -3.41797,26.3398 -0.008,0.3047 0.15234,0.6914 0.37109,0.9063 1.20313,1.1719 3.38282,1.4844 4.94922,0.7539 0.36719,-15.1328 4.34375,-28.9531 14.96094,-40.4649 z m -15.24219,41.9415 c -0.0234,0.082 -0.0469,0.1679 -0.0703,0.25 0.32422,0.2578 0.62109,0.5507 0.96875,0.7695 3.35156,2.0859 6.58984,4.3828 10.08594,6.1875 9.83593,5.0859 19.94531,9.5625 30.62109,12.6406 0.57031,0.1641 1.14063,0.3477 1.70703,0.5234 -0.0625,-0.3476 -0.19922,-0.5468 -0.3789,-0.6992 -3.05079,-2.6406 -6.0586,-5.3359 -9.17579,-7.8984 -4.2539,-3.4922 -9,-6.1758 -14.125,-8.1992 -5.16406,-2.0391 -10.47656,-3.3985 -16.05078,-3.5664 -1.19531,-0.039 -2.39062,-0.01 -3.58203,-0.01 z m -5.09765,-0.9688 c -0.87891,-1.0547 -1.78125,-1.3906 -2.97266,-1.0312 -1.07813,0.3203 -2.20703,0.4609 -3.30078,0.7343 -11.00391,2.7852 -19.6875,8.8008 -25.73828,18.4649 -2.71875,4.3476 -4.85938,8.9922 -6.97657,13.6445 -0.082,0.1797 -0.11718,0.3828 -0.2539,0.8516 11.40625,-13.1524 24.07031,-24.3399 39.24219,-32.6641 z m 52.64453,-17.5781 c -0.0274,-0.047 -0.0586,-0.098 -0.0859,-0.1446 -0.33984,0.1563 -0.67969,0.3165 -1.02344,0.4688 -1.77734,0.7969 -3.54687,1.6289 -5.34375,2.3789 -5.375,2.2461 -10.96094,3.8555 -16.54297,5.4844 -4.91015,1.4336 -9.82031,2.8789 -14.70312,4.4062 -2.3711,0.7422 -4.55078,1.9336 -6.58594,3.3594 -0.36328,0.2539 -0.67969,0.5742 -1.14844,0.9766 0.57813,0.1406 0.91016,0.2578 1.25,0.2968 3.76563,0.4258 7.53516,0.5391 11.30078,-0.043 9.15625,-1.4219 17.38282,-5.0313 24.73829,-10.6172 2.52343,-1.918 4.96484,-3.9414 7.4375,-5.918 0.25,-0.1992 0.47265,-0.4336 0.70703,-0.6484 z m -45.98438,15.6054 c 0.19922,-0.051 0.29297,-0.047 0.35156,-0.094 3.10938,-2.3789 6.61329,-3.957 10.34766,-5.0547 5.91016,-1.7383 11.83594,-3.4101 17.73828,-5.1758 5.73828,-1.7148 11.38281,-3.7031 16.71094,-6.4843 0.34375,-0.1797 0.67187,-0.3868 1.21094,-0.6915 -0.38282,-0.043 -0.46875,-0.066 -0.55469,-0.055 -4.08594,0.5273 -8.17578,1.0546 -12.26172,1.5976 -5.29297,0.7031 -10.59375,1.3672 -15.76172,2.7695 -4.25781,1.1563 -8.30078,2.7891 -11.89453,5.4141 -2.44141,1.7852 -4.24219,4.0742 -5.55859,6.7695 -0.14453,0.293 -0.20703,0.625 -0.32813,1.0039 z m -26.62109,5.9649 c -0.0742,-0.031 -0.14844,-0.09 -0.21875,-0.086 -0.82422,0.039 -1.64453,0.1015 -2.46875,0.1289 -6.08203,0.2031 -12.09766,1.0234 -18.1211,1.7968 -5.20703,0.668 -10.41406,1.3164 -15.62109,1.9493 -2.73437,0.3281 -5.47656,0.5976 -8.47656,0.9218 0.5,0.1758 0.76172,0.3008 1.03515,0.3594 2.29297,0.4688 4.58204,0.9688 6.88282,1.3828 9.77343,1.7617 19.51172,1.707 29.1914,-0.6406 0.45313,-0.1094 0.94141,-0.2617 1.29688,-0.543 2.16797,-1.7187 4.30469,-3.4804 6.5,-5.2695 z m 67.65625,18.5976 c -0.28516,-0.1875 -0.34375,-0.2539 -0.41797,-0.2773 -0.95313,-0.3008 -1.90234,-0.6055 -2.85547,-0.8906 -7.20703,-2.1602 -14.10156,-5.1094 -20.9375,-8.2149 -6.53516,-2.9648 -12.85547,-6.2968 -18.61328,-10.6211 -0.20313,-0.1562 -0.42969,-0.2812 -0.65234,-0.4218 -0.47657,0.6953 -0.29688,1.3437 -0.0117,2 0.86328,1.9882 2.21875,3.6172 3.76172,5.0937 2.39453,2.293 5.0664,4.2227 7.97656,5.8125 6.4414,3.5195 13.24219,6.0547 20.51953,7.211 3.66016,0.5781 7.33594,0.6718 11.23047,0.3085 z m -48.85156,-25.789 c 0.0742,-1.5039 0.1289,-2.9141 0.22265,-4.3203 0.043,-0.6446 -0.15625,-1.1797 -0.52734,-1.6914 -1.38281,-1.9141 -2.98438,-3.6016 -4.96485,-4.9102 -2.28906,-1.5117 -4.71093,-2.75 -7.3164,-3.6328 -4.51953,-1.5313 -9.09375,-2.8477 -13.76172,-3.8477 -1.89063,-0.4062 -3.78125,-0.8203 -5.67188,-1.2265 -0.043,0.082 -0.0859,0.164 -0.125,0.2461 1.24219,0.8398 2.45704,1.7187 3.72657,2.5156 3.87109,2.4297 8.09765,4.1367 12.23828,6.0234 5.83594,2.6602 11.30078,5.8946 15.75781,10.6055 0.0742,0.082 0.19922,0.1172 0.42188,0.2383 z m -32.03125,-17.836 c -0.043,0.043 -0.0898,0.086 -0.13672,0.125 0.1914,0.2305 0.37109,0.4766 0.57812,0.6915 5.5,5.7578 11.96485,10.2421 18.81641,14.207 0.47265,0.2734 1.05078,0.4062 1.59375,0.5 2.73828,0.4765 5.43359,1.1172 8.03906,2.0859 0.3125,0.1133 0.63672,0.1914 0.95703,0.2891 -0.10937,-0.3906 -0.29297,-0.6641 -0.53515,-0.8711 -0.91407,-0.793 -1.82422,-1.6016 -2.78125,-2.3399 -4.03907,-3.125 -8.52344,-5.4687 -13.19922,-7.4765 -3.46485,-1.4883 -6.89844,-3.0391 -10.09375,-5.0703 -1.08985,-0.6914 -2.15625,-1.4258 -3.23828,-2.1407 z m 40.04296,15.5704 c 0.95704,-1.1797 1.72657,-2.2735 2.64844,-3.2149 0.90625,-0.9219 1.9336,-1.7422 2.98047,-2.5078 1.04688,-0.7695 2.1875,-1.418 3.51953,-2.2656 -2.86328,0 -5.40234,0 -8.03515,0 -0.52344,2.6328 -0.96485,5.2031 -1.11329,7.9883 z m -10.05859,-7.75 c 0.81641,0.9296 1.5,1.6953 2.39453,2.7109 0.082,-1.1055 0.13672,-1.8633 0.19922,-2.7109 -0.86328,0 -1.60937,0 -2.59375,0 z m 115.76172,73.3437 c -2.73828,-17.5312 -10.83984,-32.1289 -24.31641,-43.7031 -5.17578,-4.4453 -10.98437,-7.8906 -17.35937,-10.3594 -0.40235,-0.1523 -0.81641,-0.3164 -1.23828,-0.3672 -0.19141,-0.027 -0.53125,0.1602 -0.59766,0.3321 -0.0664,0.1718 0.0586,0.5234 0.21484,0.6523 0.26172,0.207 0.61329,0.3125 0.9336,0.4375 4.8164,1.832 9.32031,4.2461 13.46484,7.2969 13.64844,10.0508 22.3711,23.4062 26.50781,39.7656 1.97657,7.8125 2.4336,15.7461 1.32032,23.7422 -0.17969,1.289 -0.44141,2.5625 -0.6836,3.8398 -0.082,0.4532 -0.16797,0.9571 0.3711,1.0899 0.64062,0.1562 0.76953,-0.3828 0.85156,-0.8789 0.0195,-0.125 0.043,-0.2539 0.0703,-0.3828 0.82422,-3.961 1.19141,-7.9688 1.375,-12.0274 -0.29687,-3.1484 -0.42969,-6.3203 -0.91406,-9.4375 z m -2.48828,29.6719 c -0.40235,-0.1875 -0.625,0.1289 -0.74219,0.4883 -0.12109,0.3672 -0.23047,0.7382 -0.34766,1.1093 -0.43359,1.3516 -0.85546,2.7071 -1.30078,4.0586 -0.24609,0.7344 -0.5664,1.4493 -0.76172,2.1953 -0.0664,0.2657 0.043,0.7422 0.23438,0.8711 0.4375,0.2852 0.73047,-0.094 0.86719,-0.4726 0.49218,-1.3789 0.98047,-2.7617 1.42578,-4.1563 0.35547,-1.1054 0.64453,-2.2343 1.0039,-3.5078 -0.0898,-0.1484 -0.17578,-0.4922 -0.3789,-0.5859 z m 0,0"
           fill-opacity="1"
           fill-rule="nonzero"
           id="path336" />
      </g>
      <path
         fill="#8cc63f"
         d="m 103.37727,108.79421 c -0.90403,0.27556 -1.75977,0.48141 -2.57928,0.80294 -0.78934,0.30788 -1.545469,0.72464 -2.306122,1.11762 -0.233925,0.12246 -0.455792,0.20751 -0.715379,0.20241 -2.795096,-0.0697 -5.555497,0.35213 -8.318902,0.72978 -3.21317,0.44058 -6.427842,0.85054 -9.642514,1.27244 -0.162998,0.0205 -0.32901,0.0188 -0.541818,0.0305 0.06637,-0.0817 0.09057,-0.1344 0.128292,-0.15481 1.817121,-0.97135 3.626688,-1.95628 5.454377,-2.90206 1.5847,-0.82168 3.202593,-1.54633 4.914072,-1.9784 1.249653,-0.31474 2.51892,-0.4321 3.792709,-0.47804 2.452509,-0.0868 4.898979,0.009 7.313765,0.54605 0.73801,0.16331 1.45641,0.43039 2.18387,0.65492 0.0921,0.0288 0.17807,0.0868 0.31693,0.15652 z m 3.5467,1.42554 c 0.12527,0.11221 0.23997,0.23983 0.3743,0.33511 1.29492,0.90838 2.54608,1.90863 3.89684,2.69455 3.80026,2.21482 7.70616,4.16431 11.8309,5.50477 0.22036,0.0715 0.4407,0.15141 0.65954,0.22794 -0.0241,-0.15138 -0.077,-0.23813 -0.14639,-0.3045 -1.17872,-1.14993 -2.34083,-2.32369 -3.54521,-3.43962 -1.64355,-1.5208 -3.47728,-2.68946 -5.45739,-3.57061 -1.99521,-0.88799 -4.04777,-1.48 -6.20145,-1.55311 -0.46183,-0.017 -0.92365,-0.005 -1.38397,-0.005 -0.009,0.0357 -0.0182,0.0731 -0.0272,0.10888 z m -3.09091,-0.97984 c -0.41655,0.13949 -0.85272,0.20072 -1.2753,0.31978 -4.251528,1.21292 -7.60655,3.83261 -9.944356,8.04116 -1.050435,1.8933 -1.877503,3.91594 -2.6955,5.94194 -0.03165,0.0783 -0.04523,0.16672 -0.09813,0.37087 4.406968,-5.72766 9.299912,-10.59962 15.161786,-14.22467 -0.33958,-0.45931 -0.68822,-0.60558 -1.14854,-0.44908 z m 3.8576,-0.4508 c 1.20136,-1.03597 2.55515,-1.72321 3.99797,-2.20124 2.28347,-0.757 4.57299,-1.48504 6.85344,-2.25397 2.21707,-0.74678 4.39791,-1.61265 6.45652,-2.82381 0.13281,-0.0783 0.25958,-0.16845 0.46786,-0.30114 -0.14791,-0.0188 -0.1811,-0.0288 -0.21431,-0.024 -1.57866,0.22963 -3.15883,0.45926 -4.73749,0.69573 -2.04503,0.30619 -4.09305,0.59539 -6.08978,1.20607 -1.64506,0.50354 -3.20712,1.21461 -4.59561,2.35775 -0.94328,0.77742 -1.63903,1.77424 -2.14765,2.948 -0.0559,0.12759 -0.08,0.27218 -0.12678,0.43718 0.077,-0.0222 0.1132,-0.0205 0.13583,-0.041 z m -3.06978,-2.37473 c 0.0166,-0.28071 -0.0603,-0.51375 -0.20375,-0.73658 -0.53426,-0.83356 -1.15305,-1.56845 -1.91824,-2.13831 -0.88441,-0.65833 -1.82014,-1.19758 -2.826796,-1.58202 -1.746185,-0.66686 -3.513498,-1.24014 -5.317038,-1.67562 -0.73047,-0.17688 -1.460939,-0.357223 -2.191412,-0.534119 -0.01664,0.03567 -0.03318,0.07147 -0.0483,0.107148 0.479941,0.365711 0.949313,0.748471 1.439813,1.095501 1.495656,1.05809 3.128643,1.80146 4.728445,2.62309 2.254788,1.15847 4.366218,2.567 6.088258,4.61853 0.0287,0.0357 0.077,0.051 0.16299,0.10381 0.0287,-0.65492 0.0498,-1.26904 0.086,-1.88141 z m 0,0"
         fill-opacity="1"
         fill-rule="nonzero"
         id="path340"
         style="stroke-width:0.410191" />
      <path
         fill="#247013"
         d="m 112.84018,91.846064 c -4.10211,5.013198 -5.63851,11.031706 -5.78037,17.621786 -0.60521,0.31812 -1.44736,0.18203 -1.91221,-0.32831 -0.0845,-0.0936 -0.14639,-0.26199 -0.14337,-0.39468 0.0921,-3.87341 0.30637,-7.73322 1.32058,-11.470543 0.56445,-2.07534 1.47452,-3.958493 2.57174,-5.737839 0.28675,-0.464397 0.59615,-0.639588 1.08514,-0.568176 0.96893,0.142887 1.91824,0.348742 2.85849,0.877762 z m -6.7327,18.370256 c -0.0815,1.20271 -0.46636,2.25566 -1.03986,3.23211 -0.82405,1.40003 -1.87448,2.56186 -3.03508,3.60122 -1.26474,1.13466 -2.644179,2.06345 -4.071925,2.9089 -1.809564,1.07343 -3.625175,2.13322 -5.413625,3.24744 -0.89347,0.55625 -1.734106,1.21796 -2.598903,1.83038 -0.07699,0.0562 -0.155455,0.11061 -0.279211,0.10888 0.09955,-0.16501 0.185637,-0.34365 0.300337,-0.49501 0.730469,-0.96116 1.445848,-1.93587 2.205,-2.8664 2.621541,-3.20825 5.514748,-6.07635 8.690177,-8.56844 1.33115,-1.04621 2.74681,-1.95798 4.11266,-2.95145 0.3743,-0.27387 0.71841,-0.35212 1.13043,-0.0476 z m 19.18088,-8.24528 c -0.13131,0.068 -0.26261,0.13784 -0.39542,0.20417 -0.6867,0.34703 -1.37038,0.70936 -2.06463,1.03596 -2.07671,0.97814 -4.23493,1.679 -6.39162,2.38836 -1.89711,0.62432 -3.79422,1.25373 -5.68077,1.91883 -0.91611,0.32321 -1.75825,0.84205 -2.54457,1.46296 -0.14036,0.11061 -0.2626,0.25006 -0.44371,0.4253 0.22337,0.0612 0.35165,0.11221 0.48296,0.12925 1.4549,0.18542 2.9113,0.23476 4.36621,-0.0188 3.53765,-0.61921 6.7161,-2.19104 9.558,-4.62361 0.97496,-0.83526 1.91824,-1.71641 2.87359,-2.57719 0.0966,-0.0868 0.18261,-0.18882 0.27316,-0.28236 -0.011,-0.0205 -0.0227,-0.0427 -0.0332,-0.063 z m -28.103488,9.41907 c -0.318442,0.017 -0.635385,0.0442 -0.953838,0.0562 -2.349875,0.0885 -4.6741,0.44567 -7.001349,0.78247 -2.011804,0.2909 -4.023622,0.57328 -6.035429,0.84889 -1.056468,0.14288 -2.11595,0.26024 -3.27504,0.40143 0.193185,0.0765 0.294293,0.13098 0.399938,0.15651 0.885922,0.20415 1.770345,0.4219 2.659282,0.60219 3.776105,0.76719 7.538633,0.74336 11.27852,-0.27898 0.175071,-0.0476 0.36373,-0.11393 0.501069,-0.23646 0.837624,-0.74847 1.663182,-1.51566 2.511363,-2.29478 -0.0287,-0.0135 -0.05739,-0.0391 -0.08455,-0.0374 z m 26.062998,8.01559 c -0.36825,-0.13098 -0.735,-0.26367 -1.10325,-0.38783 -2.78454,-0.94073 -5.44834,-2.22506 -8.08951,-3.57745 -2.52495,-1.29113 -4.96689,-2.74216 -7.19151,-4.62531 -0.0785,-0.068 -0.16601,-0.12246 -0.25204,-0.18369 -0.18412,0.30279 -0.1147,0.58515 -0.004,0.87096 0.33354,0.86583 0.85725,1.57523 1.45339,2.21823 0.92516,0.99855 1.95748,1.83891 3.08187,2.53124 2.48872,1.53269 5.11631,2.63672 7.92801,3.14028 1.41415,0.25175 2.83435,0.29254 4.33905,0.13434 -0.11018,-0.0816 -0.13281,-0.11061 -0.16149,-0.12073 z M 92.1063,100.58294 c 0.07393,0.10036 0.143374,0.20756 0.223357,0.30114 2.125008,2.50742 4.6228,4.46027 7.269991,6.18691 0.182613,0.11912 0.405992,0.17689 0.615772,0.21774 1.05798,0.20751 2.09934,0.48653 3.10601,0.90838 0.12074,0.0494 0.24601,0.0833 0.36976,0.1259 -0.0423,-0.1701 -0.11319,-0.28921 -0.20676,-0.37935 -0.35317,-0.34535 -0.70482,-0.69747 -1.07458,-1.01899 -1.56055,-1.36089 -3.293154,-2.38152 -5.09971,-3.25589 -1.338693,-0.64813 -2.665316,-1.32348 -3.899864,-2.20803 -0.421074,-0.30109 -0.833102,-0.62091 -1.251153,-0.93224 -0.01664,0.0188 -0.03472,0.0374 -0.05279,0.0544 z m 0,0"
         fill-opacity="1"
         fill-rule="nonzero"
         id="path342"
         style="stroke-width:0.410191" />
      <path
         fill="#cb3b2f"
         d="m 98.467719,107.03698 c -0.724425,-0.0427 -1.376422,-0.0918 -2.02841,-0.1174 -2.100857,-0.0783 -4.19567,-0.0562 -6.273888,0.36237 -1.679785,0.3385 -3.264483,1.00536 -4.815973,1.77934 -1.347752,0.67366 -2.672862,1.40514 -4.010045,2.10766 -0.988544,0.51883 -1.980122,1.02747 -2.965642,1.5514 -0.215832,0.11407 -0.537296,0.17525 -0.493532,0.54266 0.03921,0.31642 0.333543,0.33175 0.555398,0.39807 2.697014,0.79781 5.419675,1.40853 8.214771,1.59397 2.277438,0.14967 4.524691,-0.0427 6.756855,-0.54096 0.1147,-0.0257 0.230913,-0.0459 0.347124,-0.0612 0.02562,-0.005 0.05432,0.0288 0.105688,0.0579 -0.03165,0.063 -0.05432,0.13094 -0.09353,0.18368 -1.358318,1.77938 -2.340829,3.8207 -3.240331,5.91477 -0.876866,2.03963 -1.734118,4.08946 -2.595891,6.13757 -0.08904,0.21095 -0.274677,0.4712 -0.03165,0.65833 0.247514,0.18882 0.381841,-0.11061 0.522191,-0.28237 1.088165,-1.33707 2.355922,-2.41728 3.765552,-3.27976 1.974075,-1.20947 3.95722,-2.40195 5.946388,-3.5791 1.894096,-1.12102 3.699136,-2.38327 5.270256,-4.03331 1.15004,-1.20782 2.15821,-2.53809 2.77699,-4.19324 0.0166,-0.0477 0.0619,-0.0816 0.11169,-0.14461 0.16752,0.27556 0.31995,0.53925 0.48597,0.79445 0.77122,1.19243 1.7643,2.12468 2.8449,2.93097 2.62004,1.94948 5.4891,3.22702 8.56191,3.93807 1.9937,0.461 3.99796,0.4678 6.01128,0.24667 0.26261,-0.0288 0.58407,-0.0135 0.69576,-0.34365 0.12677,-0.36911 -0.20224,-0.52562 -0.39089,-0.70936 -1.5696,-1.53778 -3.11053,-3.1164 -4.73599,-4.57597 -2.1099,-1.8933 -4.53072,-3.14363 -7.11302,-4.00609 -0.12828,-0.0427 -0.25658,-0.0833 -0.38486,-0.131 -0.0272,-0.01 -0.0498,-0.0459 -0.10262,-0.0969 0.36675,-0.0715 0.70934,-0.13778 1.05345,-0.20585 3.37012,-0.66511 6.39916,-2.21142 9.12484,-4.51644 0.35166,-0.296 0.65803,-0.39124 1.09872,-0.29939 5.52683,1.14993 10.68389,3.35117 15.4229,6.7721 5.27024,3.80539 9.07654,8.96482 11.34039,15.53792 1.0444,3.02795 1.64808,6.18521 1.88202,9.42072 0.409,5.62897 -0.43164,11.07081 -2.05256,16.37657 -1.27531,4.17959 -2.91132,8.1687 -5.1465,11.82096 -1.9137,3.12495 -4.19567,5.89262 -6.64969,8.48344 -3.48785,3.67948 -7.32282,6.81122 -11.63621,9.15363 -3.99495,2.17232 -8.18308,3.69821 -12.56741,4.51985 -3.30071,0.6192 -6.61951,0.99002 -9.97153,0.91006 -2.55512,-0.0595 -5.095172,-0.33849 -7.611068,-0.82332 -6.51386,-1.2571 -12.715325,-3.55703 -18.569652,-7.04089 -5.53285,-3.2916 -10.229598,-7.69917 -14.082677,-13.2295 -2.921878,-4.19153 -5.252138,-8.7692 -6.678371,-13.8776 -1.365854,-4.88559 -1.70091,-9.87832 -1.137964,-14.95615 0.582563,-5.24281 2.109916,-10.09605 4.73448,-14.4883 2.582299,-4.32421 5.886024,-7.8319 9.717963,-10.72377 3.673487,-2.77282 7.700121,-4.66956 11.9441,-6.01001 3.465213,-1.09382 6.989267,-1.84402 10.563145,-2.29648 0.617279,-0.0783 1.233048,-0.16675 1.851829,-0.21605 0.18564,-0.0152 0.409005,0.0339 0.559924,0.14628 0.99459,0.73828 1.974089,1.50037 2.956598,2.25737 0.03921,0.0305 0.06637,0.0765 0.156965,0.18203 z m 50.355671,32.94701 c -0.1147,-1.37108 -0.16602,-2.75238 -0.35316,-4.10987 -1.05798,-7.63455 -4.18813,-13.9916 -9.395,-19.03197 -1.99974,-1.93586 -4.24397,-3.43622 -6.70704,-4.51135 -0.15546,-0.0663 -0.31543,-0.13779 -0.47843,-0.15991 -0.0739,-0.0123 -0.20525,0.0697 -0.23092,0.14463 -0.0256,0.0748 0.0227,0.22793 0.083,0.28406 0.10109,0.0901 0.23696,0.13609 0.36072,0.19052 1.86087,0.79781 3.60103,1.84911 5.20233,3.17769 5.27327,4.37695 8.6434,10.19301 10.24168,17.31725 0.76367,3.40221 0.94025,6.85715 0.51012,10.33933 -0.0694,0.56133 -0.17055,1.11592 -0.26412,1.67217 -0.0316,0.19735 -0.0649,0.4168 0.14337,0.47463 0.24752,0.068 0.29733,-0.16671 0.32903,-0.38275 0.008,-0.0544 0.0166,-0.11061 0.0272,-0.1667 0.31844,-1.72495 0.46031,-3.47028 0.53125,-5.23773 z m -1.16815,9.06689 c -0.0347,-0.0646 -0.0679,-0.21435 -0.14639,-0.25515 -0.15546,-0.0816 -0.24149,0.0562 -0.28676,0.21265 -0.0468,0.15991 -0.089,0.32147 -0.13433,0.48307 -0.16752,0.58861 -0.33051,1.17891 -0.50257,1.76746 -0.0951,0.31982 -0.21884,0.63115 -0.2943,0.95602 -0.0256,0.11566 0.0166,0.32321 0.0906,0.37935 0.16903,0.1242 0.28224,-0.041 0.33506,-0.20582 0.19016,-0.60048 0.37882,-1.20266 0.55086,-1.81 0.13734,-0.48138 0.24903,-0.97299 0.38788,-1.52758 z m -39.00169,-43.14176 c 0.35015,-0.40147 0.74709,-0.7587 1.15156,-1.0921 0.40447,-0.33511 0.84517,-0.61752 1.35982,-0.98664 -1.10627,0 -2.08728,0 -3.1045,0 -0.20224,1.14655 -0.37278,2.26587 -0.43014,3.47878 0.36978,-0.51374 0.66709,-0.99007 1.02326,-1.40004 z m -3.98438,-0.7944 c 0.0316,-0.48143 0.0528,-0.81143 0.077,-1.18056 -0.33353,0 -0.6218,0 -1.00212,0 0.31543,0.40483 0.57954,0.73828 0.92515,1.18056 z m 0,0"
         fill-opacity="1"
         fill-rule="nonzero"
         id="path344"
         style="fill:#ef9273;fill-opacity:1;stroke-width:0.410191" />
      <g
         clip-path="url(#id6)"
         id="g348"
         transform="matrix(0.38636446,0,0,0.43548323,18.301628,-487.11355)">
        <path
           fill="#000000"
           d="m 197.39453,1357.2461 c -0.47656,-0.4219 -0.78125,-0.6992 -1.09766,-0.9648 -2.85937,-2.4102 -5.61718,-4.9219 -7.86718,-7.9297 -0.28516,-0.3828 -0.59766,-0.7696 -0.76172,-1.2071 -0.1211,-0.3242 -0.16406,-0.8359 0.0117,-1.0703 0.17578,-0.2344 0.69922,-0.3554 1.02343,-0.2969 1.40625,0.2657 2.79297,0.6329 4.19532,0.9336 5.73047,1.2266 11.42968,2.5664 16.99609,4.418 3.23828,1.0781 6.29688,2.4844 9.09375,4.4297 0.48438,0.3398 0.96875,0.5273 1.56641,0.5078 1.07422,-0.031 2.14843,-0.01 3.28125,-0.01 0.23437,-1.7031 0.4414,-3.2852 0.67578,-4.8633 0.75781,-5.168 1.95312,-10.2187 4.19922,-14.9726 1.46875,-3.1055 3.19922,-6.0547 5.2539,-8.8164 0.57032,-0.7696 1.23047,-1.1563 2.1875,-1.1172 2.98047,0.1093 5.86719,0.6211 8.60547,1.832 0.19922,0.09 0.40235,0.1719 0.58594,0.2812 1,0.5977 1.10156,1.0938 0.30469,1.9415 -1.875,1.996 -3.67188,4.0507 -5.17578,6.3515 -3.69141,5.6524 -6.23438,11.7852 -7.75391,18.3516 -0.0469,0.207 -0.0469,0.4258 -0.0781,0.7617 0.51954,0 0.98829,0 1.45704,0 2.6914,0.016 5.38671,0.043 8.07812,0.031 0.55078,0 1.13672,-0.074 1.64844,-0.2656 4.625,-1.7187 9.41797,-2.7226 14.28906,-3.3945 6.40625,-0.8828 12.82031,-1.7266 19.23047,-2.6055 1.20312,-0.164 2.39453,-0.4179 3.58984,-0.6289 0.25782,-0.047 0.51172,-0.1289 0.76953,-0.1328 0.64063,0 0.94532,0.5078 0.60547,1.0508 -0.17968,0.2851 -0.45312,0.5234 -0.71875,0.7422 -2.85937,2.3984 -5.72656,4.789 -8.59375,7.1797 -0.3164,0.2656 -0.625,0.5351 -1.125,0.957 1.28516,0.2695 2.32813,0.4922 3.37891,0.707 13.95312,2.8281 26.90234,8.0977 38.76562,15.9766 14.08594,9.3515 23.97266,22 29.45313,37.9726 3.16797,9.2227 4.64844,18.7579 4.26172,28.5391 -0.41797,10.5313 -2.60938,20.7109 -6.1875,30.6094 -2.5625,7.0742 -5.65235,13.9023 -9.47266,20.3906 -4.47656,7.6016 -10.09765,14.3086 -16.27734,20.5703 -9.48438,9.6172 -20.02344,17.8477 -32.03125,24.0938 -10.78125,5.6054 -22.19531,9.4336 -34.15235,11.6172 -6.16015,1.125 -12.36718,1.8906 -18.61718,2.2343 -7.21485,0.3946 -14.41016,0.07 -21.59375,-0.7226 -15.26953,-1.6914 -29.91797,-5.7657 -44.03907,-11.6914 -10.80859,-4.5352 -21.00781,-10.2071 -30.15234,-17.6211 -12.96875,-10.5157 -23.27344,-23.1719 -30.74219,-38.1133 -5.742184,-11.4883 -8.789059,-23.6211 -8.812496,-36.4688 -0.02344,-14.4687 3.195312,-28.1171 10.492186,-40.7148 4.8125,-8.3164 11.09766,-15.3906 18.32422,-21.6719 10.99219,-9.5586 23.64453,-16.0586 37.51172,-20.3203 9.23828,-2.8359 18.66797,-4.7734 28.25,-6.0039 2.10937,-0.2695 4.22265,-0.5 6.33594,-0.75 0.19921,-0.023 0.39453,-0.063 0.82812,-0.1289 z m 10.09375,7.1016 c -0.23437,-0.2422 -0.30469,-0.3477 -0.40625,-0.418 -2.54297,-1.7383 -5.07812,-3.4883 -7.65234,-5.1836 -0.39063,-0.2578 -0.96875,-0.3711 -1.44922,-0.3359 -1.60156,0.1132 -3.19531,0.3164 -4.79297,0.4961 -9.25,1.039 -18.37109,2.7617 -27.33984,5.2734 -10.98438,3.0781 -21.40625,7.4336 -30.91407,13.8008 -9.91796,6.6406 -18.46875,14.6953 -25.15234,24.625 -6.79297,10.0859 -10.746094,21.2304 -12.253906,33.2695 -1.457032,11.6602 -0.589844,23.125 2.945316,34.3438 3.6914,11.7304 9.72265,22.2421 17.28515,31.8671 9.97266,12.6993 22.12891,22.8204 36.44922,30.3789 15.15234,8 31.20313,13.2813 48.0625,16.168 6.51172,1.1133 13.08594,1.7539 19.69922,1.8906 8.67578,0.1836 17.26562,-0.6679 25.80859,-2.0898 11.34766,-1.8867 22.1875,-5.3906 32.52735,-10.3789 11.16406,-5.3789 21.08984,-12.5703 30.11718,-21.0195 6.35157,-5.9493 12.25782,-12.3047 17.21094,-19.4805 5.78516,-8.3867 10.01953,-17.5469 13.32031,-27.1445 4.19532,-12.1836 6.3711,-24.6797 5.3125,-37.6055 -0.60546,-7.4297 -2.16796,-14.6797 -4.87109,-21.6328 -5.85937,-15.0938 -15.71094,-26.9414 -29.35156,-35.6797 -12.26563,-7.8555 -25.61328,-12.9102 -39.91797,-15.5508 -1.14063,-0.2109 -1.93359,0.01 -2.84375,0.6875 -7.05469,5.293 -14.89453,8.8438 -23.61719,10.3711 -0.89062,0.1563 -1.77734,0.3086 -2.72656,0.4727 0.13672,0.1171 0.19531,0.1992 0.26562,0.2226 0.33204,0.1094 0.66407,0.2031 0.9961,0.3008 6.68359,1.9805 12.94922,4.8516 18.41015,9.1992 4.20704,3.3516 8.19532,6.9766 12.25782,10.5078 0.48828,0.4219 1.33984,0.7813 1.01172,1.6289 -0.28907,0.7578 -1.1211,0.7227 -1.80079,0.7891 -5.21093,0.5078 -10.39843,0.4922 -15.55859,-0.5664 -7.95312,-1.6328 -15.37891,-4.5664 -22.16016,-9.043 -2.79687,-1.8515 -5.36718,-3.9922 -7.36328,-6.7304 -0.42968,-0.586 -0.82422,-1.1915 -1.25781,-1.8243 -0.12891,0.1446 -0.24609,0.2227 -0.28906,0.3321 -1.60156,3.8007 -4.21094,6.8554 -7.1875,9.6289 -4.06641,3.789 -8.73828,6.6875 -13.64063,9.2617 -5.14843,2.7031 -10.28125,5.4414 -15.39062,8.2187 -3.64844,1.9805 -6.92969,4.461 -9.7461,7.5313 -0.36328,0.3945 -0.71093,1.082 -1.35156,0.6484 -0.6289,-0.4297 -0.14844,-1.0273 0.082,-1.5117 2.23047,-4.7031 4.44922,-9.4101 6.71875,-14.0937 2.32813,-4.8086 4.8711,-9.4961 8.38672,-13.5821 0.10156,-0.1211 0.16016,-0.2773 0.24219,-0.4218 -0.13281,-0.067 -0.20703,-0.1407 -0.27344,-0.1329 -0.30078,0.035 -0.60156,0.082 -0.89844,0.1407 -5.77734,1.1445 -11.59375,1.5859 -17.48828,1.2422 -7.23437,-0.4219 -14.28125,-1.8282 -21.26172,-3.6602 -0.57421,-0.1523 -1.33593,-0.1875 -1.4375,-0.9141 -0.11328,-0.8437 0.71875,-0.9843 1.27735,-1.2461 2.55078,-1.2031 5.11719,-2.3711 7.67578,-3.5625 3.46094,-1.6132 6.89062,-3.2929 10.37891,-4.8398 4.01562,-1.7773 8.11718,-3.3086 12.46484,-4.0859 5.37891,-0.961 10.80469,-1.0118 16.23828,-0.8321 1.6875,0.059 3.375,0.1719 5.25,0.2696 z m 12.70703,4.0351 c -0.35937,-0.1601 -0.58203,-0.293 -0.82031,-0.3594 -1.88281,-0.5156 -3.74219,-1.1289 -5.65234,-1.5039 -6.25,-1.2343 -12.58204,-1.4531 -18.92969,-1.2539 -3.29688,0.1055 -6.58203,0.375 -9.81641,1.0977 -4.42969,0.9922 -8.61719,2.6562 -12.71875,4.543 -4.73047,2.1718 -9.41406,4.4335 -14.11719,6.664 -0.0977,0.047 -0.16015,0.168 -0.33203,0.3555 0.55078,-0.027 0.98047,-0.024 1.40235,-0.07 8.32031,-0.9688 16.64062,-1.9102 24.95703,-2.9219 7.15234,-0.8672 14.29687,-1.8359 21.53125,-1.6758 0.67187,0.012 1.24609,-0.1836 1.85156,-0.4648 1.96875,-0.9024 3.92578,-1.8594 5.96875,-2.5664 2.12109,-0.7383 4.33594,-1.211 6.67578,-1.8438 z m 7.06641,3.2656 c -1.06641,-0.6992 -1.95703,-0.5195 -2.92578,0.1094 -3.53516,2.2813 -7.19922,4.375 -10.64453,6.7774 -8.21875,5.7226 -15.70704,12.3086 -22.49219,19.6757 -1.96485,2.1368 -3.81641,4.375 -5.70703,6.5821 -0.29688,0.3476 -0.51953,0.7578 -0.77735,1.1367 0.32032,0 0.52344,-0.1211 0.72266,-0.25 2.23828,-1.4063 4.41406,-2.9258 6.72656,-4.2031 4.62891,-2.5586 9.32813,-4.9922 14.01172,-7.4571 3.69531,-1.9414 7.26563,-4.0742 10.53906,-6.6797 3.00391,-2.3867 5.72266,-5.0546 7.85547,-8.2695 1.48438,-2.2422 2.48047,-4.6601 2.69141,-7.4219 z m 17.42578,-42.1836 c -2.43359,-1.2148 -4.89063,-1.6875 -7.39844,-2.0156 -1.26562,-0.164 -2.0664,0.2383 -2.80859,1.3047 -2.83985,4.0859 -5.19531,8.4102 -6.65625,13.1758 -2.625,8.582 -3.17969,17.4453 -3.41797,26.3398 -0.008,0.3047 0.15234,0.6914 0.37109,0.9063 1.20313,1.1719 3.38282,1.4844 4.94922,0.7539 0.36719,-15.1328 4.34375,-28.9531 14.96094,-40.4649 z m -15.24219,41.9415 c -0.0234,0.082 -0.0469,0.1679 -0.0703,0.25 0.32422,0.2578 0.62109,0.5507 0.96875,0.7695 3.35156,2.0859 6.58984,4.3828 10.08594,6.1875 9.83593,5.0859 19.94531,9.5625 30.62109,12.6406 0.57031,0.1641 1.14063,0.3477 1.70703,0.5234 -0.0625,-0.3476 -0.19922,-0.5468 -0.3789,-0.6992 -3.05079,-2.6406 -6.0586,-5.3359 -9.17579,-7.8984 -4.2539,-3.4922 -9,-6.1758 -14.125,-8.1992 -5.16406,-2.0391 -10.47656,-3.3985 -16.05078,-3.5664 -1.19531,-0.039 -2.39062,-0.01 -3.58203,-0.01 z m -5.09765,-0.9688 c -0.87891,-1.0547 -1.78125,-1.3906 -2.97266,-1.0312 -1.07813,0.3203 -2.20703,0.4609 -3.30078,0.7343 -11.00391,2.7852 -19.6875,8.8008 -25.73828,18.4649 -2.71875,4.3476 -4.85938,8.9922 -6.97657,13.6445 -0.082,0.1797 -0.11718,0.3828 -0.2539,0.8516 11.40625,-13.1524 24.07031,-24.3399 39.24219,-32.6641 z m 52.64453,-17.5781 c -0.0274,-0.047 -0.0586,-0.098 -0.0859,-0.1446 -0.33984,0.1563 -0.67969,0.3165 -1.02344,0.4688 -1.77734,0.7969 -3.54687,1.6289 -5.34375,2.3789 -5.375,2.2461 -10.96094,3.8555 -16.54297,5.4844 -4.91015,1.4336 -9.82031,2.8789 -14.70312,4.4062 -2.3711,0.7422 -4.55078,1.9336 -6.58594,3.3594 -0.36328,0.2539 -0.67969,0.5742 -1.14844,0.9766 0.57813,0.1406 0.91016,0.2578 1.25,0.2968 3.76563,0.4258 7.53516,0.5391 11.30078,-0.043 9.15625,-1.4219 17.38282,-5.0313 24.73829,-10.6172 2.52343,-1.918 4.96484,-3.9414 7.4375,-5.918 0.25,-0.1992 0.47265,-0.4336 0.70703,-0.6484 z m -45.98438,15.6054 c 0.19922,-0.051 0.29297,-0.047 0.35156,-0.094 3.10938,-2.3789 6.61329,-3.957 10.34766,-5.0547 5.91016,-1.7383 11.83594,-3.4101 17.73828,-5.1758 5.73828,-1.7148 11.38281,-3.7031 16.71094,-6.4843 0.34375,-0.1797 0.67187,-0.3868 1.21094,-0.6915 -0.38282,-0.043 -0.46875,-0.066 -0.55469,-0.055 -4.08594,0.5273 -8.17578,1.0546 -12.26172,1.5976 -5.29297,0.7031 -10.59375,1.3672 -15.76172,2.7695 -4.25781,1.1563 -8.30078,2.7891 -11.89453,5.4141 -2.44141,1.7852 -4.24219,4.0742 -5.55859,6.7695 -0.14453,0.293 -0.20703,0.625 -0.32813,1.0039 z m -26.62109,5.9649 c -0.0742,-0.031 -0.14844,-0.09 -0.21875,-0.086 -0.82422,0.039 -1.64453,0.1015 -2.46875,0.1289 -6.08203,0.2031 -12.09766,1.0234 -18.1211,1.7968 -5.20703,0.668 -10.41406,1.3164 -15.62109,1.9493 -2.73437,0.3281 -5.47656,0.5976 -8.47656,0.9218 0.5,0.1758 0.76172,0.3008 1.03515,0.3594 2.29297,0.4688 4.58204,0.9688 6.88282,1.3828 9.77343,1.7617 19.51172,1.707 29.1914,-0.6406 0.45313,-0.1094 0.94141,-0.2617 1.29688,-0.543 2.16797,-1.7187 4.30469,-3.4804 6.5,-5.2695 z m 67.65625,18.5976 c -0.28516,-0.1875 -0.34375,-0.2539 -0.41797,-0.2773 -0.95313,-0.3008 -1.90234,-0.6055 -2.85547,-0.8906 -7.20703,-2.1602 -14.10156,-5.1094 -20.9375,-8.2149 -6.53516,-2.9648 -12.85547,-6.2968 -18.61328,-10.6211 -0.20313,-0.1562 -0.42969,-0.2812 -0.65234,-0.4218 -0.47657,0.6953 -0.29688,1.3437 -0.0117,2 0.86328,1.9882 2.21875,3.6172 3.76172,5.0937 2.39453,2.293 5.0664,4.2227 7.97656,5.8125 6.4414,3.5195 13.24219,6.0547 20.51953,7.211 3.66016,0.5781 7.33594,0.6718 11.23047,0.3085 z m -48.85156,-25.789 c 0.0742,-1.5039 0.1289,-2.9141 0.22265,-4.3203 0.043,-0.6446 -0.15625,-1.1797 -0.52734,-1.6914 -1.38281,-1.9141 -2.98438,-3.6016 -4.96485,-4.9102 -2.28906,-1.5117 -4.71093,-2.75 -7.3164,-3.6328 -4.51953,-1.5313 -9.09375,-2.8477 -13.76172,-3.8477 -1.89063,-0.4062 -3.78125,-0.8203 -5.67188,-1.2265 -0.043,0.082 -0.0859,0.164 -0.125,0.2461 1.24219,0.8398 2.45704,1.7187 3.72657,2.5156 3.87109,2.4297 8.09765,4.1367 12.23828,6.0234 5.83594,2.6602 11.30078,5.8946 15.75781,10.6055 0.0742,0.082 0.19922,0.1172 0.42188,0.2383 z m -32.03125,-17.836 c -0.043,0.043 -0.0898,0.086 -0.13672,0.125 0.1914,0.2305 0.37109,0.4766 0.57812,0.6915 5.5,5.7578 11.96485,10.2421 18.81641,14.207 0.47265,0.2734 1.05078,0.4062 1.59375,0.5 2.73828,0.4765 5.43359,1.1172 8.03906,2.0859 0.3125,0.1133 0.63672,0.1914 0.95703,0.2891 -0.10937,-0.3906 -0.29297,-0.6641 -0.53515,-0.8711 -0.91407,-0.793 -1.82422,-1.6016 -2.78125,-2.3399 -4.03907,-3.125 -8.52344,-5.4687 -13.19922,-7.4765 -3.46485,-1.4883 -6.89844,-3.0391 -10.09375,-5.0703 -1.08985,-0.6914 -2.15625,-1.4258 -3.23828,-2.1407 z m 40.04296,15.5704 c 0.95704,-1.1797 1.72657,-2.2735 2.64844,-3.2149 0.90625,-0.9219 1.9336,-1.7422 2.98047,-2.5078 1.04688,-0.7695 2.1875,-1.418 3.51953,-2.2656 -2.86328,0 -5.40234,0 -8.03515,0 -0.52344,2.6328 -0.96485,5.2031 -1.11329,7.9883 z m -10.05859,-7.75 c 0.81641,0.9296 1.5,1.6953 2.39453,2.7109 0.082,-1.1055 0.13672,-1.8633 0.19922,-2.7109 -0.86328,0 -1.60937,0 -2.59375,0 z m 115.76172,73.3437 c -2.73828,-17.5312 -10.83984,-32.1289 -24.31641,-43.7031 -5.17578,-4.4453 -10.98437,-7.8906 -17.35937,-10.3594 -0.40235,-0.1523 -0.81641,-0.3164 -1.23828,-0.3672 -0.19141,-0.027 -0.53125,0.1602 -0.59766,0.3321 -0.0664,0.1718 0.0586,0.5234 0.21484,0.6523 0.26172,0.207 0.61329,0.3125 0.9336,0.4375 4.8164,1.832 9.32031,4.2461 13.46484,7.2969 13.64844,10.0508 22.3711,23.4062 26.50781,39.7656 1.97657,7.8125 2.4336,15.7461 1.32032,23.7422 -0.17969,1.289 -0.44141,2.5625 -0.6836,3.8398 -0.082,0.4532 -0.16797,0.9571 0.3711,1.0899 0.64062,0.1562 0.76953,-0.3828 0.85156,-0.8789 0.0195,-0.125 0.043,-0.2539 0.0703,-0.3828 0.82422,-3.961 1.19141,-7.9688 1.375,-12.0274 -0.29687,-3.1484 -0.42969,-6.3203 -0.91406,-9.4375 z m -2.48828,29.6719 c -0.40235,-0.1875 -0.625,0.1289 -0.74219,0.4883 -0.12109,0.3672 -0.23047,0.7382 -0.34766,1.1093 -0.43359,1.3516 -0.85546,2.7071 -1.30078,4.0586 -0.24609,0.7344 -0.5664,1.4493 -0.76172,2.1953 -0.0664,0.2657 0.043,0.7422 0.23438,0.8711 0.4375,0.2852 0.73047,-0.094 0.86719,-0.4726 0.49218,-1.3789 0.98047,-2.7617 1.42578,-4.1563 0.35547,-1.1054 0.64453,-2.2343 1.0039,-3.5078 -0.0898,-0.1484 -0.17578,-0.4922 -0.3789,-0.5859 z m 0,0"
           fill-opacity="1"
           fill-rule="nonzero"
           id="path346" />
      </g>
    </g>
  </g>
</svg>
